<?xml version="1.0" encoding="UTF-8" standalone="no"?>
<!-- Created with Inkscape (http://www.inkscape.org/) -->

<svg
   width="127.84751mm"
   height="58.015396mm"
   viewBox="0 0 127.84751 58.015396"
   version="1.1"
   id="svg5"
   xml:space="preserve"
   xmlns="http://www.w3.org/2000/svg"
   xmlns:svg="http://www.w3.org/2000/svg"><defs
     id="defs2" /><g
     id="g307"
     transform="translate(-37.961045,-54.447269)"
     style="fill:#4b0082;fill-opacity:1"><g
       id="g305"
       style="fill:#4b0082;fill-opacity:1"><path
         id="path299"
         style="fill:#ffebcd;fill-opacity:1;stroke-width:0.0420852"
         d="m 65.152927,54.447276 c -0.978687,-9.5e-5 -1.957753,0.02633 -2.484603,0.07958 -3.775974,0.381652 -7.110629,1.377096 -10.289811,3.071648 -7.71974,4.114738 -13.003727,11.685476 -14.178463,20.315039 -0.213684,1.569697 -0.297409,3.884709 -0.19637,5.431709 0.379062,5.803767 2.545758,11.2552 6.220292,15.652792 4.25612,5.093616 10.015775,8.391646 16.529224,9.464536 1.590377,0.26202 2.339772,0.31685 4.335136,0.31885 1.791431,0.002 2.188097,-0.0182 3.429764,-0.17054 3.657494,-0.44859 7.298209,-1.68814 10.451559,-3.55895 0.227837,-0.13517 0.427284,-0.24598 0.443384,-0.24598 0.0161,0 0.18939,0.20385 0.384989,0.45268 0.488707,0.6217 1.836837,1.96256 2.523877,2.51045 0.62677,0.49983 1.745946,1.25801 2.462382,1.66863 2.332762,1.33699 5.215039,2.31133 8.52196,2.88044 0.451365,0.0776 0.884366,0.14218 0.962216,0.14418 0.135921,0.003 0.12621,-0.009 -0.252181,-0.29766 -1.880244,-1.43423 -3.718735,-3.19437 -5.029151,-4.81572 -1.889927,-2.33839 -3.115229,-4.8445 -3.569291,-7.29878 -0.07963,-0.430411 -0.190567,-1.450133 -0.191203,-1.757003 L 85.226121,98.07252 H 81.202077 77.17855 l -0.152963,0.120923 c -0.08434,0.06661 -0.399823,0.281577 -0.700732,0.478007 -1.944125,1.26911 -4.070005,2.19624 -6.291606,2.7435 -3.667903,0.90354 -7.532207,0.77194 -11.110433,-0.37827 -3.10927,-0.99947 -5.867332,-2.6851 -8.18658,-5.004346 -3.364127,-3.364122 -5.368516,-7.586142 -5.895247,-12.416296 -0.103985,-0.953401 -0.1049,-3.01713 -0.0016,-3.997172 0.360494,-3.418579 1.476155,-6.538755 3.333647,-9.322945 1.302723,-1.952643 2.930342,-3.658045 4.879806,-5.113383 2.713495,-2.02572 6.063142,-3.373344 9.461438,-3.807003 5.142146,-0.656187 10.261559,0.621894 14.462166,3.610632 1.717866,1.222264 3.242541,2.718801 4.540291,4.457093 l 0.447518,0.599446 3.906738,5.17e-4 3.906739,5.17e-4 -0.4377,-0.852145 C 88.075454,66.72902 86.534647,64.597189 84.573915,62.599233 82.391449,60.375338 80.114606,58.705457 77.398126,57.335988 74.297614,55.77292 71.244002,54.894585 67.63438,54.527374 c -0.524452,-0.05335 -1.502815,-0.08 -2.481502,-0.0801 z" /><text
         xml:space="preserve"
         style="font-weight:bold;font-size:32.222px;font-family:'Nimbus Roman';-inkscape-font-specification:'Nimbus Roman, Bold';text-align:center;text-anchor:middle;fill:#ffebcd;fill-opacity:1;stroke-width:0.581001;stroke-linecap:round;stroke-dasharray:2.324, 2.324;paint-order:stroke fill markers"
         x="114.33401"
         y="94.120438"
         id="text303"><tspan
           id="tspan301"
           style="fill:#ffebcd;fill-opacity:1;stroke-width:0.581"
           x="114.33401"
           y="94.120438">hatHub</tspan></text></g></g></svg>
